<svg xmlns="http://www.w3.org/2000/svg" viewBox="0 0 512 512" role="img" aria-label="Aurelia Private Vault">
  <defs>
    <linearGradient id="bg" x1="0%" x2="100%" y1="0%" y2="100%">
      <stop offset="0%" stop-color="#0f2644"/>
      <stop offset="55%" stop-color="#142d52"/>
      <stop offset="100%" stop-color="#08111e"/>
    </linearGradient>
    <linearGradient id="gold" x1="0%" x2="100%" y1="0%" y2="100%">
      <stop offset="0%" stop-color="#f4e2a0"/>
      <stop offset="38%" stop-color="#c39a4e"/>
      <stop offset="68%" stop-color="#f1dda2"/>
      <stop offset="100%" stop-color="#9b7330"/>
    </linearGradient>
    <radialGradient id="burst" cx="50%" cy="48%" r="42%">
      <stop offset="0%" stop-color="#204778"/>
      <stop offset="100%" stop-color="#10233f"/>
    </radialGradient>
    <path id="topArc" d="M95 256a161 161 0 0 1 322 0"/>
    <path id="bottomArc" d="M417 256a161 161 0 0 1-322 0"/>
  </defs>

  <rect width="512" height="512" rx="104" fill="url(#bg)"/>
  <circle cx="256" cy="256" r="206" fill="#0b1830"/>
  <circle cx="256" cy="256" r="196" fill="none" stroke="url(#gold)" stroke-width="10"/>
  <circle cx="256" cy="256" r="182" fill="none" stroke="#8e6b31" stroke-width="2"/>
  <circle cx="256" cy="256" r="166" fill="url(#burst)" stroke="url(#gold)" stroke-width="6"/>
  <circle cx="256" cy="256" r="150" fill="none" stroke="#8f6e34" stroke-width="2"/>

  <g fill="none" stroke="rgba(255,255,255,0.12)" stroke-width="1.5" opacity="0.65">
    <path d="M168 190c36-22 140-22 176 0"/>
    <path d="M154 322c48 26 156 26 204 0"/>
    <path d="M144 250c44-34 180-34 224 0"/>
  </g>

  <g fill="url(#gold)">
    <circle cx="105" cy="256" r="6"/>
    <circle cx="407" cy="256" r="6"/>
    <path d="M214 135h84l-10 20h-64z"/>
    <path d="M222 135l10-22 24 16 24-16 10 22z"/>
  </g>

  <text fill="url(#gold)" font-family="Georgia, 'Times New Roman', serif" font-size="30" letter-spacing="5">
    <textPath href="#topArc" startOffset="50%" text-anchor="middle">AURELIA</textPath>
  </text>
  <text fill="url(#gold)" font-family="Georgia, 'Times New Roman', serif" font-size="28" letter-spacing="4">
    <textPath href="#bottomArc" startOffset="50%" text-anchor="middle">PRIVATE VAULT</textPath>
  </text>

  <g fill="none" stroke="url(#gold)" stroke-width="6" stroke-linejoin="round" stroke-linecap="round">
    <path d="M256 158 340 190v62c0 62-42 104-84 124-42-20-84-62-84-124v-62z"/>
    <path d="M207 203c18-10 81-10 98 0"/>
  </g>

  <g fill="url(#gold)">
    <path d="M228 322c-14 0-26-7-35-20-16-24-12-62 22-90 11-9 24-14 38-14 22 0 39 11 48 29 11 23 3 50-17 68l28 18-11 15-28-18c-14 8-29 12-45 12zm-3-33c8 0 17-3 24-8l-17-12 11-15 19 13c5-7 8-14 8-22 0-8-3-14-8-19-4-4-10-6-16-6-8 0-17 3-24 9-19 15-22 35-13 49 4 7 9 11 16 11z"/>
    <path d="M181 227c-13-18-23-27-36-33l4-8c17 3 29 11 45 26z"/>
    <path d="M177 246c-18 3-30 11-42 22l-6-7c10-16 22-25 41-31z"/>
    <path d="M183 269c-16 12-23 24-27 41l-9-3c2-18 10-33 25-46z"/>
  </g>

  <g transform="translate(276 247)">
    <rect x="0" y="0" width="76" height="92" rx="8" fill="none" stroke="url(#gold)" stroke-width="6"/>
    <path d="M15 14h46v64H15z" fill="none" stroke="url(#gold)" stroke-width="4"/>
    <path d="M38 18v58M19 44h38" fill="none" stroke="url(#gold)" stroke-width="4"/>
    <circle cx="58" cy="48" r="14" fill="none" stroke="url(#gold)" stroke-width="4"/>
    <circle cx="58" cy="48" r="5" fill="url(#gold)"/>
    <path d="M58 29v-8M58 75v-8M39 48h-8M85 48h-8M45 35l-5-5M76 66l-5-5M45 61l-5 5M76 30l-5 5" fill="none" stroke="url(#gold)" stroke-width="3"/>
  </g>
</svg>
